<svg width="93" height="92" viewBox="0 0 93 92" fill="none" xmlns="http://www.w3.org/2000/svg">
<path opacity="0.4" d="M79.3406 32.3917C75.3156 14.6817 59.8672 6.70833 46.2972 6.70833C46.2972 6.70833 46.2972 6.70833 46.2589 6.70833C32.7272 6.70833 17.2406 14.6433 13.2156 32.3533C8.73057 52.1333 20.8439 68.885 31.8072 79.4267C35.8706 83.3367 41.0839 85.2917 46.2972 85.2917C51.5106 85.2917 56.7239 83.3367 60.7489 79.4267C71.7122 68.885 83.8256 52.1717 79.3406 32.3917Z" fill="#5380E5"/>
<path d="M46.2954 51.5973C52.9642 51.5973 58.3704 46.1911 58.3704 39.5223C58.3704 32.8534 52.9642 27.4473 46.2954 27.4473C39.6266 27.4473 34.2204 32.8534 34.2204 39.5223C34.2204 46.1911 39.6266 51.5973 46.2954 51.5973Z" fill="#5380E5"/>
</svg>
