<svg width="92" height="92" viewBox="0 0 92 92" fill="none" xmlns="http://www.w3.org/2000/svg">
<path opacity="0.4" d="M32.5833 72.7173H30.6667C15.3333 72.7173 7.66667 68.884 7.66667 49.7173V30.5506C7.66667 15.2173 15.3333 7.55063 30.6667 7.55063H61.3333C76.6667 7.55063 84.3333 15.2173 84.3333 30.5506V49.7173C84.3333 65.0506 76.6667 72.7173 61.3333 72.7173H59.4167C58.2283 72.7173 57.0784 73.2924 56.3501 74.2507L50.6001 81.9174C48.0701 85.2907 43.93 85.2907 41.4 81.9174L35.65 74.2507C35.0366 73.4074 33.6567 72.7173 32.5833 72.7173Z" fill="#5380E5"/>
<path d="M30.6683 51.5571C29.94 51.5571 29.2116 51.2887 28.6366 50.7137L20.97 43.047C19.8583 41.9353 19.8583 40.0953 20.97 38.9837L28.6366 31.317C29.7483 30.2053 31.5883 30.2053 32.7 31.317C33.8116 32.4287 33.8116 34.2687 32.7 35.3803L27.065 41.0154L32.7 46.6503C33.8116 47.762 33.8116 49.602 32.7 50.7137C32.125 51.2887 31.3966 51.5571 30.6683 51.5571Z" fill="#5380E5"/>
<path d="M61.335 51.5571C60.6066 51.5571 59.8783 51.2887 59.3033 50.7137C58.1916 49.602 58.1916 47.762 59.3033 46.6503L64.9383 41.0154L59.3033 35.3803C58.1916 34.2687 58.1916 32.4287 59.3033 31.317C60.415 30.2053 62.255 30.2053 63.3666 31.317L71.0333 38.9837C72.145 40.0953 72.145 41.9353 71.0333 43.047L63.3666 50.7137C62.7916 51.2887 62.0633 51.5571 61.335 51.5571Z" fill="#5380E5"/>
<path d="M42.168 52.8225C41.7847 52.8225 41.4014 52.7456 41.0181 52.5923C39.5614 51.9789 38.8714 50.2923 39.523 48.7973L47.1897 30.8957C47.803 29.439 49.4897 28.749 50.9847 29.4006C52.4413 30.014 53.1314 31.7006 52.4797 33.1956L44.813 51.0974C44.353 52.1708 43.2797 52.8225 42.168 52.8225Z" fill="#5380E5"/>
</svg>
