<svg width="92" height="92" viewBox="0 0 92 92" fill="none" xmlns="http://www.w3.org/2000/svg">
<path opacity="0.4" d="M82.4166 32.085V60.6433C82.4166 61.2183 82.225 61.7933 81.7266 62.2917C76.1683 67.8883 66.2783 77.855 60.605 83.5667C60.1066 84.1033 59.455 84.3333 58.8033 84.3333H28.2516C17.94 84.3333 9.58331 75.9767 9.58331 65.665V32.085C9.58331 21.7733 17.94 13.4167 28.2516 13.4167H63.7483C74.06 13.4167 82.4166 21.7733 82.4166 32.085Z" fill="#5380E5"/>
<path d="M31.7785 24.1117C30.1685 24.1117 28.9035 22.8083 28.9035 21.2367V10.5417C28.9035 8.96999 30.1685 7.66666 31.7785 7.66666C33.3885 7.66666 34.6535 8.96999 34.6535 10.5417V21.1983C34.6535 22.8083 33.3885 24.1117 31.7785 24.1117Z" fill="#5380E5"/>
<path d="M60.2215 24.1117C58.6115 24.1117 57.3465 22.8083 57.3465 21.2367V10.5417C57.3465 8.93166 58.6498 7.66666 60.2215 7.66666C61.8315 7.66666 63.0965 8.96999 63.0965 10.5417V21.1983C63.0965 22.8083 61.8315 24.1117 60.2215 24.1117Z" fill="#5380E5"/>
<path d="M56.658 48.7215H28.2147C26.6047 48.7215 25.3397 47.4182 25.3397 45.8465C25.3397 44.2749 26.643 42.9715 28.2147 42.9715H56.658C58.268 42.9715 59.533 44.2749 59.533 45.8465C59.533 47.4182 58.268 48.7215 56.658 48.7215Z" fill="#5380E5"/>
<path d="M46.0013 62.943H28.2147C26.6047 62.943 25.3397 61.6397 25.3397 60.068C25.3397 58.458 26.643 57.193 28.2147 57.193H46.0013C47.6113 57.193 48.8763 58.4964 48.8763 60.068C48.8763 61.6397 47.6113 62.943 46.0013 62.943Z" fill="#5380E5"/>
<path d="M82.4183 60.6421C82.4183 61.2171 82.2266 61.7921 81.7283 62.2905C76.17 67.8871 66.28 77.8538 60.6066 83.5655C60.1083 84.1021 59.4566 84.3321 58.805 84.3321C57.54 84.3321 56.3133 83.3355 56.3133 81.8788V68.4621C56.3133 62.8655 61.0666 58.2271 66.8933 58.2271C70.535 58.1888 75.595 58.1888 79.9266 58.1888C81.4216 58.1888 82.4183 59.3771 82.4183 60.6421Z" fill="#5380E5"/>
</svg>
