<svg width="92" height="92" viewBox="0 0 92 92" fill="none" xmlns="http://www.w3.org/2000/svg">
<path opacity="0.4" d="M64.8594 84.3327C54.1261 84.3327 45.3861 75.6311 45.3861 64.8595C45.3861 54.1261 54.0877 45.3861 64.8594 45.3861C75.5927 45.3861 84.3327 54.0878 84.3327 64.8595C84.3327 75.6311 75.6311 84.3327 64.8594 84.3327Z" fill="#5380E5"/>
<path opacity="0.4" d="M19.2434 7.66667H34.27C42.205 7.66667 46.0384 11.5 45.8467 19.2433V34.27C46.0384 42.205 42.205 46.0383 34.27 45.8466H19.2434C11.5 46 7.66667 42.1666 7.66667 34.2316V19.205C7.66667 11.5 11.5 7.66667 19.2434 7.66667Z" fill="#5380E5"/>
<path d="M34.5371 31.663C33.3488 31.663 32.2372 31.203 31.2022 30.4363C32.1605 28.903 32.8505 27.178 33.1955 25.2997H34.4988C36.0705 25.2997 37.3738 23.9963 37.3738 22.4247C37.3738 20.853 36.0705 19.5497 34.4988 19.5497H30.7038C30.6655 19.5497 30.6272 19.5497 30.6272 19.5497H30.5505H29.5539C29.4005 18.093 28.2122 16.943 26.7172 16.943C25.2222 16.943 24.0338 18.093 23.8805 19.5497H18.9355C17.3638 19.5497 16.0605 20.853 16.0605 22.4247C16.0605 23.9963 17.3638 25.2997 18.9355 25.2997H27.2538C26.1038 28.9797 22.8071 31.663 18.8971 31.663C17.3255 31.663 16.0221 32.9664 16.0221 34.538C16.0221 36.1097 17.3255 37.413 18.8971 37.413C22.0021 37.413 24.8772 36.378 27.2538 34.653C29.3622 36.4163 31.8922 37.413 34.4988 37.413C36.0705 37.413 37.3738 36.1097 37.3738 34.538C37.3738 32.9664 36.1088 31.663 34.5371 31.663Z" fill="#5380E5"/>
<path d="M34.5 87.2083C18.1317 87.2083 4.79167 73.8683 4.79167 57.5C4.79167 55.9283 6.09501 54.625 7.66667 54.625C9.23834 54.625 10.5417 55.9283 10.5417 57.5C10.5417 68.8467 18.4383 78.3533 29.0567 80.845L28.0217 79.1201C27.2167 77.7401 27.6384 75.9766 29.0184 75.1716C30.36 74.3666 32.1617 74.7883 32.9667 76.1683L36.9916 82.8766C37.5283 83.7583 37.5284 84.87 37.03 85.7516C36.4934 86.6333 35.535 87.2083 34.5 87.2083Z" fill="#5380E5"/>
<path d="M84.335 37.375C82.7633 37.375 81.46 36.0717 81.46 34.5C81.46 23.1533 73.5633 13.6467 62.945 11.155L63.98 12.8799C64.785 14.2599 64.3633 16.0234 62.9833 16.8284C61.6416 17.6334 59.8399 17.2117 59.0349 15.8317L55.01 9.12336C54.4733 8.24169 54.4733 7.13002 54.9716 6.24836C55.4699 5.32836 56.4283 4.79167 57.4633 4.79167C73.8316 4.79167 87.1716 18.1317 87.1716 34.5C87.21 36.0717 85.9066 37.375 84.335 37.375Z" fill="#5380E5"/>
<path d="M75.6299 70.2635L67.4266 53.8953C66.9283 52.9369 65.9316 52.2853 64.8583 52.2853C63.785 52.2853 62.7883 52.8985 62.29 53.8569L54.0866 70.2253C53.3583 71.6436 53.9333 73.3685 55.3899 74.0969C55.8116 74.2885 56.2333 74.4036 56.655 74.4036C57.69 74.4036 58.7249 73.8286 59.2233 72.8319L59.8749 71.5286H69.8033L70.455 72.8319C71.1833 74.2503 72.9083 74.8252 74.3266 74.1352C75.7833 73.4069 76.3583 71.6819 75.6299 70.2635ZM62.7883 65.7786L64.8966 61.6003L67.0049 65.7786H62.7883Z" fill="#5380E5"/>
</svg>
