<svg width="188" height="48" viewBox="0 0 188 48" fill="none" xmlns="http://www.w3.org/2000/svg">
<g clip-path="url(#clip0_35_94)">
<path d="M22.8667 9.11282C22.0372 9.50457 21.1285 9.69964 20.2113 9.68284C19.2941 9.69977 18.3854 9.50469 17.5559 9.11282C16.0105 8.32506 15.2369 7.96215 13.6915 7.23635C12.231 6.54949 12.231 5.44132 13.6915 4.71551C15.2511 3.94723 16.0229 3.54538 17.5701 2.6514C18.3873 2.22351 19.296 2 20.2184 2C21.1408 2 22.0495 2.22351 22.8667 2.6514C24.4121 3.54538 25.1839 3.94723 26.7311 4.71551C28.1916 5.44309 28.1916 6.55126 26.7311 7.23635C25.1839 7.96215 24.4121 8.32506 22.8667 9.11282Z" fill="#5273FF"/>
<path d="M22.8667 9.11282C22.0372 9.50457 21.1285 9.69964 20.2113 9.68284C19.2941 9.69977 18.3854 9.50469 17.5559 9.11282C16.0105 8.32506 15.2369 7.96215 13.6915 7.23635C12.231 6.54949 12.231 5.44132 13.6915 4.71551C15.2511 3.94723 16.0229 3.54538 17.5701 2.6514C18.3873 2.22351 19.296 2 20.2184 2C21.1408 2 22.0495 2.22351 22.8667 2.6514C24.4121 3.54538 25.1839 3.94723 26.7311 4.71551C28.1916 5.44309 28.1916 6.55126 26.7311 7.23635C25.1839 7.96215 24.4121 8.32506 22.8667 9.11282Z" fill="#37B82A"/>
<path d="M37.4331 13.0597L33.5669 15.4194C32.7533 15.8588 31.8432 16.0889 30.9186 16.0889C29.9939 16.0889 29.0838 15.8588 28.2703 15.4194L24.4076 13.0597C24.3155 13.003 22.8799 11.9143 20.2174 11.9143C17.555 11.9143 16.121 13.003 16.0272 13.0597L12.1628 15.4194C11.3542 15.8779 10.4367 16.1092 9.50739 16.0886C8.57809 16.1093 7.66049 15.8781 6.85202 15.4194L3.0088 13.0597C2.3007 12.6277 1.91302 12.0524 1.91302 11.4417C1.91302 10.8309 2.3007 10.3052 3.0088 9.92455C4.55423 9.08899 5.32783 8.71193 6.87503 7.97728C7.71183 7.61292 8.61798 7.43532 9.53041 7.45682C10.4429 7.4361 11.349 7.6143 12.1858 7.97905C13.7312 8.72078 14.503 9.09784 16.0502 9.92632C16.1441 9.97589 17.578 10.9885 20.2404 10.9885C22.9029 10.9885 24.3386 9.98297 24.4306 9.92632C25.976 9.09076 26.7496 8.7137 28.2951 7.97905C29.9922 7.28394 31.8945 7.28394 33.5917 7.97905C35.1371 8.72078 35.9107 9.09961 37.4561 9.92632C38.1642 10.3087 38.5519 10.8327 38.5519 11.4434C38.5519 12.0542 38.1394 12.6224 37.4331 13.0597Z" fill="#FF481D"/>
<path d="M37.4331 13.0597L33.5669 15.4194C32.7533 15.8588 31.8432 16.0889 30.9186 16.0889C29.9939 16.0889 29.0838 15.8588 28.2703 15.4194L24.4076 13.0597C24.3155 13.003 22.8799 11.9143 20.2174 11.9143C17.555 11.9143 16.121 13.003 16.0272 13.0597L12.1628 15.4194C11.3542 15.8779 10.4367 16.1092 9.50739 16.0886C8.57809 16.1093 7.66049 15.8781 6.85202 15.4194L3.0088 13.0597C2.3007 12.6277 1.91302 12.0524 1.91302 11.4417C1.91302 10.8309 2.3007 10.3052 3.0088 9.92455C4.55423 9.08899 5.32783 8.71193 6.87503 7.97728C7.71183 7.61292 8.61798 7.43532 9.53041 7.45682C10.4429 7.4361 11.349 7.6143 12.1858 7.97905C13.7312 8.72078 14.503 9.09784 16.0502 9.92632C16.1441 9.97589 17.578 10.9885 20.2404 10.9885C22.9029 10.9885 24.3386 9.98297 24.4306 9.92632C25.976 9.09076 26.7496 8.7137 28.2951 7.97905C29.9922 7.28394 31.8945 7.28394 33.5917 7.97905C35.1371 8.72078 35.9107 9.09961 37.4561 9.92632C38.1642 10.3087 38.5519 10.8327 38.5519 11.4434C38.5519 12.0542 38.1394 12.6224 37.4331 13.0597Z" fill="#37B82A"/>
<path d="M17.5699 13.999C18.3785 13.5406 19.296 13.3094 20.2253 13.3299C21.1546 13.3092 22.0721 13.5404 22.8806 13.999L26.7309 16.3606C28.1914 17.2457 28.1914 18.7026 26.7309 19.5948L22.8665 21.9563C22.058 22.4149 21.1404 22.6462 20.2111 22.6255C19.2818 22.6462 18.3642 22.415 17.5557 21.9563L13.7054 19.5948C12.245 18.7097 12.245 17.2528 13.7054 16.3606L17.5699 13.999ZM39.1528 13.861C38.6766 13.5919 38.0375 13.6839 37.3524 14.107L33.6154 16.442C32.1992 17.3271 31.038 19.393 31.0167 21.057L30.9618 25.4614C30.9512 26.2669 31.2079 26.8599 31.6859 27.1272C32.1638 27.3945 32.8011 27.3042 33.4862 26.8829L37.225 24.5515C38.6412 23.6664 39.8025 21.6005 39.8237 19.9365L39.8786 15.5321C39.8874 14.7266 39.6307 14.1336 39.1528 13.861Z" fill="#36B82A"/>
<path d="M39.1522 13.8609C38.676 13.5919 38.037 13.6839 37.3519 14.107L33.6149 16.442C32.1987 17.3271 31.0374 19.393 31.0162 21.057L30.9613 25.4614C30.9507 26.2669 31.2074 26.8599 31.6853 27.1272C32.1633 27.3945 32.8006 27.3042 33.4857 26.8829L37.2244 24.5515C38.6406 23.6664 39.8019 21.6005 39.8232 19.9364L39.878 15.5321C39.8869 14.7266 39.6302 14.1336 39.1522 13.8609Z" fill="#5273FF"/>
<path d="M29.7878 30.5014C31.0571 31.2095 30.8659 33.1568 30.8641 33.2595L30.8021 37.6585C30.7915 38.464 31.05 39.0553 31.5262 39.3244C32.0024 39.5934 32.6414 39.5014 33.3265 39.0783L37.0653 36.7486C37.815 36.2221 38.4374 35.5345 38.8871 34.7363C39.3367 33.9381 39.6022 33.0494 39.664 32.1354L39.7189 27.731C39.7295 26.9255 39.4728 26.3325 38.9949 26.0652C38.5169 25.7979 37.8796 25.8882 37.1945 26.3112L33.4575 28.6391C33.3672 28.6958 31.8094 29.8624 30.5401 29.149C29.2709 28.4355 29.4621 26.4936 29.4638 26.3909L29.5187 21.9865C29.5293 21.1811 29.2726 20.588 28.7947 20.3207C28.3167 20.0534 27.6794 20.1437 26.9943 20.565L23.2626 22.8893C22.5126 23.416 21.89 24.1038 21.4403 24.9024C20.9907 25.701 20.7254 26.59 20.6639 27.5044L20.609 31.9176C20.5984 32.7231 20.8569 33.3161 21.3331 33.5834C21.8093 33.8507 22.4483 33.7605 23.1334 33.3391L26.8722 31.0077C26.9607 30.9493 28.5185 29.7809 29.7878 30.5014Z" fill="#5273FF"/>
<path d="M28.6473 32.5174C28.1711 32.2501 27.5321 32.3404 26.847 32.7634L23.1082 35.0949C21.692 35.98 20.5307 38.0441 20.5095 39.7099L20.4546 44.1143C20.444 44.9197 20.7025 45.5128 21.1787 45.7801C21.6548 46.0474 22.2939 45.9571 22.979 45.534L26.7178 43.2044C28.134 42.3193 29.2952 40.2534 29.3165 38.5893L29.3714 34.185C29.3855 33.3795 29.1235 32.7865 28.6473 32.5174ZM13.2497 31.0215C12.4874 30.5096 11.8549 29.8271 11.4023 29.0282C10.9497 28.2293 10.6894 27.3359 10.6421 26.4189L10.6598 21.9685C10.6598 20.2867 11.8477 19.6176 13.2922 20.4779L17.1177 22.7544C17.8802 23.2662 18.5128 23.9486 18.9655 24.7476C19.4181 25.5465 19.6783 26.44 19.7253 27.3571L19.7076 31.8075C19.7076 33.4892 18.5197 34.1566 17.0752 33.2981L13.2497 31.0215Z" fill="#FF481D"/>
<path d="M28.6481 32.5174C28.1719 32.2501 27.5329 32.3404 26.8478 32.7635L23.109 35.0949C21.6928 35.98 20.5315 38.0441 20.5103 39.7099L20.4554 44.1143C20.4448 44.9198 20.7033 45.5128 21.1795 45.7801C21.6557 46.0474 22.2947 45.9571 22.9798 45.534L26.7186 43.2044C28.1348 42.3193 29.2961 40.2534 29.3173 38.5894L29.3722 34.185C29.3863 33.3795 29.1243 32.7865 28.6481 32.5174Z" fill="#5273FF"/>
<path d="M17.0263 45.6235L13.2008 43.3469C12.4384 42.8351 11.8058 42.1526 11.3532 41.3537C10.9006 40.5547 10.6404 39.6613 10.5932 38.7443L10.6109 34.2939C10.6109 34.1876 10.788 32.4369 9.47975 30.1196C8.17153 27.8023 6.57654 27.0553 6.48449 27.0004L2.65543 24.7168C1.87954 24.2168 1.24404 23.527 0.809064 22.7129C0.340149 21.9223 0.0794605 21.0258 0.0513964 20.1071L0.0690989 15.6567C0.0690989 14.8423 0.348798 14.2405 0.846239 13.9572C1.34368 13.674 2.00221 13.7501 2.70323 14.1661L6.52697 16.4426C7.30317 16.9404 7.93981 17.6276 8.37688 18.4395C8.84778 19.2318 9.10914 20.1311 9.13632 21.0524L9.11862 25.5028C9.11862 25.6108 8.94159 27.3598 10.2498 29.677C11.558 31.9943 13.1512 32.7413 13.2433 32.8033L17.0688 35.0798C17.8312 35.5917 18.4638 36.2741 18.9164 37.0731C19.369 37.872 19.6293 38.7655 19.6764 39.6825L19.6587 44.1329C19.6587 44.9472 19.379 45.5491 18.8815 45.8323C18.3841 46.1156 17.7256 46.0395 17.0263 45.6235Z" fill="#36B82A"/>
<path d="M17.0263 45.6235L13.2008 43.3469C12.4384 42.8351 11.8058 42.1526 11.3532 41.3537C10.9006 40.5547 10.6404 39.6613 10.5932 38.7443L10.6109 34.2939C10.6109 34.1876 10.788 32.4369 9.47975 30.1196C8.17153 27.8023 6.57654 27.0553 6.48449 27.0004L2.65543 24.7168C1.87954 24.2168 1.24404 23.527 0.809064 22.7129C0.340149 21.9223 0.0794605 21.0258 0.0513964 20.1071L0.0690989 15.6567C0.0690989 14.8423 0.348798 14.2405 0.846239 13.9572C1.34368 13.674 2.00221 13.7501 2.70323 14.1661L6.52697 16.4426C7.30317 16.9404 7.93981 17.6276 8.37688 18.4395C8.84778 19.2318 9.10914 20.1311 9.13632 21.0524L9.11862 25.5028C9.11862 25.6108 8.94159 27.3598 10.2498 29.677C11.558 31.9943 13.1512 32.7413 13.2433 32.8033L17.0688 35.0798C17.8312 35.5917 18.4638 36.2741 18.9164 37.0731C19.369 37.872 19.6293 38.7655 19.6764 39.6825L19.6587 44.1329C19.6587 44.9472 19.379 45.5491 18.8815 45.8323C18.3841 46.1156 17.7256 46.0395 17.0263 45.6235Z" fill="#FF491D"/>
<path d="M6.47541 28.7693C7.24956 29.2678 7.8843 29.955 8.32001 30.7661C8.7907 31.5586 9.05204 32.4577 9.07945 33.379L9.06175 37.8294C9.06175 39.5112 7.87391 40.1786 6.42938 39.32L2.60741 37.0523C1.83107 36.5522 1.195 35.8626 0.759272 35.0484C0.28801 34.2555 0.0266348 33.3556 -0.000165939 32.4337L0.0175366 27.9833C0.0175366 26.3016 1.20537 25.6342 2.6499 26.4927L6.47541 28.7693Z" fill="#5273FF"/>
<path d="M6.47541 28.7693C7.24956 29.2678 7.8843 29.955 8.32001 30.7661C8.7907 31.5586 9.05204 32.4577 9.07945 33.379L9.06175 37.8294C9.06175 39.5112 7.87391 40.1786 6.42938 39.32L2.60741 37.0523C1.83107 36.5522 1.195 35.8626 0.759272 35.0484C0.28801 34.2555 0.0266348 33.3556 -0.000165939 32.4337L0.0175366 27.9833C0.0175366 26.3016 1.20537 25.6342 2.6499 26.4927L6.47541 28.7693Z" fill="#FF481D"/>
</g>
<path d="M72.0347 22.226C72.24 22.226 72.422 22.3053 72.5807 22.464L74.0647 24.074C73.2433 25.0913 72.2307 25.8707 71.0267 26.412C69.832 26.9533 68.3947 27.224 66.7147 27.224C65.212 27.224 63.8587 26.9673 62.6547 26.454C61.46 25.9407 60.438 25.2267 59.5887 24.312C58.7393 23.3973 58.086 22.3053 57.6287 21.036C57.1807 19.7667 56.9567 18.3807 56.9567 16.878C56.9567 15.3567 57.1993 13.966 57.6847 12.706C58.17 11.4367 58.8513 10.3447 59.7287 9.43C60.6153 8.51533 61.67 7.806 62.8927 7.302C64.1153 6.78867 65.4687 6.532 66.9527 6.532C68.4273 6.532 69.734 6.77467 70.8727 7.26C72.0207 7.74533 72.996 8.38 73.7987 9.164L72.5387 10.914C72.464 11.026 72.366 11.124 72.2447 11.208C72.1327 11.292 71.974 11.334 71.7687 11.334C71.6287 11.334 71.484 11.2967 71.3347 11.222C71.1853 11.138 71.022 11.04 70.8447 10.928C70.6673 10.8067 70.462 10.676 70.2287 10.536C69.9953 10.396 69.7247 10.27 69.4167 10.158C69.1087 10.0367 68.7493 9.93867 68.3387 9.864C67.9373 9.78 67.4707 9.738 66.9387 9.738C66.0333 9.738 65.2027 9.90133 64.4467 10.228C63.7 10.5453 63.056 11.012 62.5147 11.628C61.9733 12.2347 61.5533 12.9813 61.2547 13.868C60.956 14.7453 60.8067 15.7487 60.8067 16.878C60.8067 18.0167 60.9653 19.0293 61.2827 19.916C61.6093 20.8027 62.048 21.5493 62.5987 22.156C63.1493 22.7627 63.798 23.2293 64.5447 23.556C65.2913 23.8733 66.094 24.032 66.9527 24.032C67.466 24.032 67.928 24.004 68.3387 23.948C68.7587 23.892 69.1413 23.8033 69.4867 23.682C69.8413 23.5607 70.1727 23.4067 70.4807 23.22C70.798 23.024 71.1107 22.786 71.4187 22.506C71.512 22.422 71.61 22.3567 71.7127 22.31C71.8153 22.254 71.9227 22.226 72.0347 22.226ZM96.6329 16.878C96.6329 18.362 96.3855 19.7387 95.8909 21.008C95.4055 22.268 94.7149 23.36 93.8189 24.284C92.9229 25.208 91.8449 25.9313 90.5849 26.454C89.3249 26.9673 87.9249 27.224 86.3849 27.224C84.8542 27.224 83.4589 26.9673 82.1989 26.454C80.9389 25.9313 79.8562 25.208 78.9509 24.284C78.0549 23.36 77.3595 22.268 76.8649 21.008C76.3702 19.7387 76.1229 18.362 76.1229 16.878C76.1229 15.394 76.3702 14.022 76.8649 12.762C77.3595 11.4927 78.0549 10.396 78.9509 9.472C79.8562 8.548 80.9389 7.82933 82.1989 7.316C83.4589 6.79333 84.8542 6.532 86.3849 6.532C87.4115 6.532 88.3775 6.65333 89.2829 6.896C90.1882 7.12933 91.0189 7.46533 91.7749 7.904C92.5309 8.33333 93.2075 8.86067 93.8049 9.486C94.4115 10.102 94.9249 10.7927 95.3449 11.558C95.7649 12.3233 96.0822 13.154 96.2969 14.05C96.5209 14.946 96.6329 15.8887 96.6329 16.878ZM92.7829 16.878C92.7829 15.7673 92.6335 14.7733 92.3349 13.896C92.0362 13.0093 91.6115 12.258 91.0609 11.642C90.5102 11.026 89.8382 10.5547 89.0449 10.228C88.2609 9.90133 87.3742 9.738 86.3849 9.738C85.3955 9.738 84.5042 9.90133 83.7109 10.228C82.9269 10.5547 82.2549 11.026 81.6949 11.642C81.1442 12.258 80.7195 13.0093 80.4209 13.896C80.1222 14.7733 79.9729 15.7673 79.9729 16.878C79.9729 17.9887 80.1222 18.9873 80.4209 19.874C80.7195 20.7513 81.1442 21.498 81.6949 22.114C82.2549 22.7207 82.9269 23.1873 83.7109 23.514C84.5042 23.8407 85.3955 24.004 86.3849 24.004C87.3742 24.004 88.2609 23.8407 89.0449 23.514C89.8382 23.1873 90.5102 22.7207 91.0609 22.114C91.6115 21.498 92.0362 20.7513 92.3349 19.874C92.6335 18.9873 92.7829 17.9887 92.7829 16.878ZM112.918 23.892V27H101.06V6.756H104.826V23.892H112.918ZM127.507 10.438C127.395 10.634 127.274 10.7787 127.143 10.872C127.022 10.956 126.868 10.998 126.681 10.998C126.485 10.998 126.27 10.928 126.037 10.788C125.813 10.6387 125.542 10.4753 125.225 10.298C124.908 10.1207 124.534 9.962 124.105 9.822C123.685 9.67267 123.186 9.598 122.607 9.598C122.084 9.598 121.627 9.66333 121.235 9.794C120.843 9.91533 120.512 10.088 120.241 10.312C119.98 10.536 119.784 10.8067 119.653 11.124C119.522 11.432 119.457 11.7727 119.457 12.146C119.457 12.622 119.588 13.0187 119.849 13.336C120.12 13.6533 120.474 13.924 120.913 14.148C121.352 14.372 121.851 14.5727 122.411 14.75C122.971 14.9273 123.545 15.1187 124.133 15.324C124.721 15.52 125.295 15.7533 125.855 16.024C126.415 16.2853 126.914 16.6213 127.353 17.032C127.792 17.4333 128.142 17.928 128.403 18.516C128.674 19.104 128.809 19.818 128.809 20.658C128.809 21.5727 128.65 22.4313 128.333 23.234C128.025 24.0273 127.568 24.7227 126.961 25.32C126.364 25.908 125.631 26.3747 124.763 26.72C123.895 27.056 122.901 27.224 121.781 27.224C121.137 27.224 120.502 27.1587 119.877 27.028C119.252 26.9067 118.65 26.7293 118.071 26.496C117.502 26.2627 116.965 25.9827 116.461 25.656C115.957 25.3293 115.509 24.9653 115.117 24.564L116.223 22.758C116.316 22.6273 116.438 22.52 116.587 22.436C116.736 22.3427 116.895 22.296 117.063 22.296C117.296 22.296 117.548 22.394 117.819 22.59C118.09 22.7767 118.412 22.9867 118.785 23.22C119.158 23.4533 119.592 23.668 120.087 23.864C120.591 24.0507 121.193 24.144 121.893 24.144C122.966 24.144 123.797 23.892 124.385 23.388C124.973 22.8747 125.267 22.142 125.267 21.19C125.267 20.658 125.132 20.224 124.861 19.888C124.6 19.552 124.25 19.272 123.811 19.048C123.372 18.8147 122.873 18.6187 122.313 18.46C121.753 18.3013 121.184 18.1287 120.605 17.942C120.026 17.7553 119.457 17.5313 118.897 17.27C118.337 17.0087 117.838 16.668 117.399 16.248C116.96 15.828 116.606 15.3053 116.335 14.68C116.074 14.0453 115.943 13.266 115.943 12.342C115.943 11.6047 116.088 10.886 116.377 10.186C116.676 9.486 117.105 8.86533 117.665 8.324C118.225 7.78267 118.916 7.34867 119.737 7.022C120.558 6.69533 121.501 6.532 122.565 6.532C123.76 6.532 124.861 6.71867 125.869 7.092C126.877 7.46533 127.736 7.988 128.445 8.66L127.507 10.438ZM152.52 16.878C152.52 18.362 152.273 19.7387 151.778 21.008C151.293 22.268 150.602 23.36 149.706 24.284C148.81 25.208 147.732 25.9313 146.472 26.454C145.212 26.9673 143.812 27.224 142.272 27.224C140.742 27.224 139.346 26.9673 138.086 26.454C136.826 25.9313 135.744 25.208 134.838 24.284C133.942 23.36 133.247 22.268 132.752 21.008C132.258 19.7387 132.01 18.362 132.01 16.878C132.01 15.394 132.258 14.022 132.752 12.762C133.247 11.4927 133.942 10.396 134.838 9.472C135.744 8.548 136.826 7.82933 138.086 7.316C139.346 6.79333 140.742 6.532 142.272 6.532C143.299 6.532 144.265 6.65333 145.17 6.896C146.076 7.12933 146.906 7.46533 147.662 7.904C148.418 8.33333 149.095 8.86067 149.692 9.486C150.299 10.102 150.812 10.7927 151.232 11.558C151.652 12.3233 151.97 13.154 152.184 14.05C152.408 14.946 152.52 15.8887 152.52 16.878ZM148.67 16.878C148.67 15.7673 148.521 14.7733 148.222 13.896C147.924 13.0093 147.499 12.258 146.948 11.642C146.398 11.026 145.726 10.5547 144.932 10.228C144.148 9.90133 143.262 9.738 142.272 9.738C141.283 9.738 140.392 9.90133 139.598 10.228C138.814 10.5547 138.142 11.026 137.582 11.642C137.032 12.258 136.607 13.0093 136.308 13.896C136.01 14.7733 135.86 15.7673 135.86 16.878C135.86 17.9887 136.01 18.9873 136.308 19.874C136.607 20.7513 137.032 21.498 137.582 22.114C138.142 22.7207 138.814 23.1873 139.598 23.514C140.392 23.8407 141.283 24.004 142.272 24.004C143.262 24.004 144.148 23.8407 144.932 23.514C145.726 23.1873 146.398 22.7207 146.948 22.114C147.499 21.498 147.924 20.7513 148.222 19.874C148.521 18.9873 148.67 17.9887 148.67 16.878ZM168.805 23.892V27H156.947V6.756H160.713V23.892H168.805Z" fill="#5380E5"/>
<path d="M63.0127 43.224C63.0767 43.224 63.1327 43.25 63.1807 43.302L63.6427 43.8C63.2907 44.208 62.8627 44.526 62.3587 44.754C61.8587 44.982 61.2527 45.096 60.5407 45.096C59.9247 45.096 59.3647 44.99 58.8607 44.778C58.3567 44.562 57.9267 44.262 57.5707 43.878C57.2147 43.49 56.9387 43.026 56.7427 42.486C56.5467 41.946 56.4487 41.352 56.4487 40.704C56.4487 40.056 56.5507 39.462 56.7547 38.922C56.9587 38.382 57.2447 37.918 57.6127 37.53C57.9847 37.142 58.4287 36.842 58.9447 36.63C59.4607 36.414 60.0307 36.306 60.6547 36.306C61.2667 36.306 61.8067 36.404 62.2747 36.6C62.7427 36.796 63.1547 37.062 63.5107 37.398L63.1267 37.932C63.1027 37.972 63.0707 38.006 63.0307 38.034C62.9947 38.058 62.9447 38.07 62.8807 38.07C62.8087 38.07 62.7207 38.032 62.6167 37.956C62.5127 37.876 62.3767 37.788 62.2087 37.692C62.0407 37.596 61.8307 37.51 61.5787 37.434C61.3267 37.354 61.0167 37.314 60.6487 37.314C60.2047 37.314 59.7987 37.392 59.4307 37.548C59.0627 37.7 58.7447 37.922 58.4767 38.214C58.2127 38.506 58.0067 38.862 57.8587 39.282C57.7107 39.702 57.6367 40.176 57.6367 40.704C57.6367 41.24 57.7127 41.718 57.8647 42.138C58.0207 42.558 58.2307 42.914 58.4947 43.206C58.7627 43.494 59.0767 43.714 59.4367 43.866C59.8007 44.018 60.1927 44.094 60.6127 44.094C60.8687 44.094 61.0987 44.08 61.3027 44.052C61.5107 44.02 61.7007 43.972 61.8727 43.908C62.0487 43.844 62.2107 43.764 62.3587 43.668C62.5107 43.568 62.6607 43.45 62.8087 43.314C62.8767 43.254 62.9447 43.224 63.0127 43.224ZM67.6651 38.826C68.1091 38.826 68.5091 38.9 68.8651 39.048C69.2211 39.196 69.5251 39.406 69.7771 39.678C70.0291 39.95 70.2211 40.28 70.3531 40.668C70.4891 41.052 70.5571 41.482 70.5571 41.958C70.5571 42.438 70.4891 42.87 70.3531 43.254C70.2211 43.638 70.0291 43.966 69.7771 44.238C69.5251 44.51 69.2211 44.72 68.8651 44.868C68.5091 45.012 68.1091 45.084 67.6651 45.084C67.2171 45.084 66.8131 45.012 66.4531 44.868C66.0971 44.72 65.7931 44.51 65.5411 44.238C65.2891 43.966 65.0951 43.638 64.9591 43.254C64.8271 42.87 64.7611 42.438 64.7611 41.958C64.7611 41.482 64.8271 41.052 64.9591 40.668C65.0951 40.28 65.2891 39.95 65.5411 39.678C65.7931 39.406 66.0971 39.196 66.4531 39.048C66.8131 38.9 67.2171 38.826 67.6651 38.826ZM67.6651 44.25C68.2651 44.25 68.7131 44.05 69.0091 43.65C69.3051 43.246 69.4531 42.684 69.4531 41.964C69.4531 41.24 69.3051 40.676 69.0091 40.272C68.7131 39.868 68.2651 39.666 67.6651 39.666C67.3611 39.666 67.0951 39.718 66.8671 39.822C66.6431 39.926 66.4551 40.076 66.3031 40.272C66.1551 40.468 66.0431 40.71 65.9671 40.998C65.8951 41.282 65.8591 41.604 65.8591 41.964C65.8591 42.684 66.0071 43.246 66.3031 43.65C66.6031 44.05 67.0571 44.25 67.6651 44.25ZM73.4957 36.162V45H72.4277V36.162H73.4957ZM76.8116 36.162V45H75.7436V36.162H76.8116ZM82.3176 42.264C81.8256 42.28 81.4056 42.32 81.0576 42.384C80.7136 42.444 80.4316 42.524 80.2116 42.624C79.9956 42.724 79.8376 42.842 79.7376 42.978C79.6416 43.114 79.5936 43.266 79.5936 43.434C79.5936 43.594 79.6196 43.732 79.6716 43.848C79.7236 43.964 79.7936 44.06 79.8816 44.136C79.9736 44.208 80.0796 44.262 80.1996 44.298C80.3236 44.33 80.4556 44.346 80.5956 44.346C80.7836 44.346 80.9556 44.328 81.1116 44.292C81.2676 44.252 81.4136 44.196 81.5496 44.124C81.6896 44.052 81.8216 43.966 81.9456 43.866C82.0736 43.766 82.1976 43.652 82.3176 43.524V42.264ZM78.8676 39.78C79.2036 39.456 79.5656 39.214 79.9536 39.054C80.3416 38.894 80.7716 38.814 81.2436 38.814C81.5836 38.814 81.8856 38.87 82.1496 38.982C82.4136 39.094 82.6356 39.25 82.8156 39.45C82.9956 39.65 83.1316 39.892 83.2236 40.176C83.3156 40.46 83.3616 40.772 83.3616 41.112V45H82.8876C82.7836 45 82.7036 44.984 82.6476 44.952C82.5916 44.916 82.5476 44.848 82.5156 44.748L82.3956 44.172C82.2356 44.32 82.0796 44.452 81.9276 44.568C81.7756 44.68 81.6156 44.776 81.4476 44.856C81.2796 44.932 81.0996 44.99 80.9076 45.03C80.7196 45.074 80.5096 45.096 80.2776 45.096C80.0416 45.096 79.8196 45.064 79.6116 45C79.4036 44.932 79.2216 44.832 79.0656 44.7C78.9136 44.568 78.7916 44.402 78.6996 44.202C78.6116 43.998 78.5676 43.758 78.5676 43.482C78.5676 43.242 78.6336 43.012 78.7656 42.792C78.8976 42.568 79.1116 42.37 79.4076 42.198C79.7036 42.026 80.0896 41.886 80.5656 41.778C81.0416 41.666 81.6256 41.602 82.3176 41.586V41.112C82.3176 40.64 82.2156 40.284 82.0116 40.044C81.8076 39.8 81.5096 39.678 81.1176 39.678C80.8536 39.678 80.6316 39.712 80.4516 39.78C80.2756 39.844 80.1216 39.918 79.9896 40.002C79.8616 40.082 79.7496 40.156 79.6536 40.224C79.5616 40.288 79.4696 40.32 79.3776 40.32C79.3056 40.32 79.2436 40.302 79.1916 40.266C79.1396 40.226 79.0956 40.178 79.0596 40.122L78.8676 39.78ZM86.5424 43.536C86.7384 43.8 86.9524 43.986 87.1844 44.094C87.4204 44.202 87.6784 44.256 87.9584 44.256C88.5304 44.256 88.9684 44.054 89.2724 43.65C89.5764 43.246 89.7284 42.644 89.7284 41.844C89.7284 41.1 89.5924 40.554 89.3204 40.206C89.0524 39.854 88.6684 39.678 88.1684 39.678C87.8204 39.678 87.5164 39.758 87.2564 39.918C87.0004 40.078 86.7624 40.304 86.5424 40.596V43.536ZM86.5424 39.798C86.7984 39.502 87.0864 39.266 87.4064 39.09C87.7304 38.914 88.1024 38.826 88.5224 38.826C88.8784 38.826 89.1984 38.894 89.4824 39.03C89.7704 39.166 90.0144 39.364 90.2144 39.624C90.4144 39.88 90.5664 40.192 90.6704 40.56C90.7784 40.928 90.8324 41.342 90.8324 41.802C90.8324 42.294 90.7724 42.742 90.6524 43.146C90.5324 43.55 90.3584 43.896 90.1304 44.184C89.9064 44.468 89.6324 44.69 89.3084 44.85C88.9844 45.006 88.6204 45.084 88.2164 45.084C87.8164 45.084 87.4784 45.01 87.2024 44.862C86.9304 44.71 86.6924 44.496 86.4884 44.22L86.4344 44.772C86.4024 44.924 86.3104 45 86.1584 45H85.4684V36.162H86.5424V39.798ZM95.2252 38.826C95.6692 38.826 96.0692 38.9 96.4252 39.048C96.7812 39.196 97.0852 39.406 97.3372 39.678C97.5892 39.95 97.7812 40.28 97.9132 40.668C98.0492 41.052 98.1172 41.482 98.1172 41.958C98.1172 42.438 98.0492 42.87 97.9132 43.254C97.7812 43.638 97.5892 43.966 97.3372 44.238C97.0852 44.51 96.7812 44.72 96.4252 44.868C96.0692 45.012 95.6692 45.084 95.2252 45.084C94.7772 45.084 94.3732 45.012 94.0132 44.868C93.6572 44.72 93.3532 44.51 93.1012 44.238C92.8492 43.966 92.6552 43.638 92.5192 43.254C92.3872 42.87 92.3212 42.438 92.3212 41.958C92.3212 41.482 92.3872 41.052 92.5192 40.668C92.6552 40.28 92.8492 39.95 93.1012 39.678C93.3532 39.406 93.6572 39.196 94.0132 39.048C94.3732 38.9 94.7772 38.826 95.2252 38.826ZM95.2252 44.25C95.8252 44.25 96.2732 44.05 96.5692 43.65C96.8652 43.246 97.0132 42.684 97.0132 41.964C97.0132 41.24 96.8652 40.676 96.5692 40.272C96.2732 39.868 95.8252 39.666 95.2252 39.666C94.9212 39.666 94.6552 39.718 94.4272 39.822C94.2032 39.926 94.0152 40.076 93.8632 40.272C93.7152 40.468 93.6032 40.71 93.5272 40.998C93.4552 41.282 93.4192 41.604 93.4192 41.964C93.4192 42.684 93.5672 43.246 93.8632 43.65C94.1632 44.05 94.6172 44.25 95.2252 44.25ZM100.966 40.14C101.158 39.724 101.394 39.4 101.674 39.168C101.954 38.932 102.296 38.814 102.7 38.814C102.828 38.814 102.95 38.828 103.066 38.856C103.186 38.884 103.292 38.928 103.384 38.988L103.306 39.786C103.282 39.886 103.222 39.936 103.126 39.936C103.07 39.936 102.988 39.924 102.88 39.9C102.772 39.876 102.65 39.864 102.514 39.864C102.322 39.864 102.15 39.892 101.998 39.948C101.85 40.004 101.716 40.088 101.596 40.2C101.48 40.308 101.374 40.444 101.278 40.608C101.186 40.768 101.102 40.952 101.026 41.16V45H99.9518V38.922H100.564C100.68 38.922 100.76 38.944 100.804 38.988C100.848 39.032 100.878 39.108 100.894 39.216L100.966 40.14ZM108.003 42.264C107.511 42.28 107.091 42.32 106.743 42.384C106.399 42.444 106.117 42.524 105.897 42.624C105.681 42.724 105.523 42.842 105.423 42.978C105.327 43.114 105.279 43.266 105.279 43.434C105.279 43.594 105.305 43.732 105.357 43.848C105.409 43.964 105.479 44.06 105.567 44.136C105.659 44.208 105.765 44.262 105.885 44.298C106.009 44.33 106.141 44.346 106.281 44.346C106.469 44.346 106.641 44.328 106.797 44.292C106.953 44.252 107.099 44.196 107.235 44.124C107.375 44.052 107.507 43.966 107.631 43.866C107.759 43.766 107.883 43.652 108.003 43.524V42.264ZM104.553 39.78C104.889 39.456 105.251 39.214 105.639 39.054C106.027 38.894 106.457 38.814 106.929 38.814C107.269 38.814 107.571 38.87 107.835 38.982C108.099 39.094 108.321 39.25 108.501 39.45C108.681 39.65 108.817 39.892 108.909 40.176C109.001 40.46 109.047 40.772 109.047 41.112V45H108.573C108.469 45 108.389 44.984 108.333 44.952C108.277 44.916 108.233 44.848 108.201 44.748L108.081 44.172C107.921 44.32 107.765 44.452 107.613 44.568C107.461 44.68 107.301 44.776 107.133 44.856C106.965 44.932 106.785 44.99 106.593 45.03C106.405 45.074 106.195 45.096 105.963 45.096C105.727 45.096 105.505 45.064 105.297 45C105.089 44.932 104.907 44.832 104.751 44.7C104.599 44.568 104.477 44.402 104.385 44.202C104.297 43.998 104.253 43.758 104.253 43.482C104.253 43.242 104.319 43.012 104.451 42.792C104.583 42.568 104.797 42.37 105.093 42.198C105.389 42.026 105.775 41.886 106.251 41.778C106.727 41.666 107.311 41.602 108.003 41.586V41.112C108.003 40.64 107.901 40.284 107.697 40.044C107.493 39.8 107.195 39.678 106.803 39.678C106.539 39.678 106.317 39.712 106.137 39.78C105.961 39.844 105.807 39.918 105.675 40.002C105.547 40.082 105.435 40.156 105.339 40.224C105.247 40.288 105.155 40.32 105.063 40.32C104.991 40.32 104.929 40.302 104.877 40.266C104.825 40.226 104.781 40.178 104.745 40.122L104.553 39.78ZM116.712 45H115.644V39.816H112.512V43.464C112.512 43.72 112.574 43.91 112.698 44.034C112.822 44.158 112.982 44.22 113.178 44.22C113.29 44.22 113.386 44.206 113.466 44.178C113.55 44.146 113.622 44.112 113.682 44.076C113.742 44.04 113.792 44.008 113.832 43.98C113.876 43.948 113.914 43.932 113.946 43.932C114.002 43.932 114.052 43.966 114.096 44.034L114.408 44.544C114.224 44.716 114.002 44.852 113.742 44.952C113.482 45.048 113.214 45.096 112.938 45.096C112.458 45.096 112.088 44.962 111.828 44.694C111.572 44.426 111.444 44.04 111.444 43.536V39.816H110.712C110.648 39.816 110.594 39.798 110.55 39.762C110.506 39.722 110.484 39.662 110.484 39.582V39.156L111.48 39.024L111.726 37.152C111.738 37.092 111.764 37.044 111.804 37.008C111.848 36.968 111.904 36.948 111.972 36.948H112.512V39.042H116.712V45ZM116.976 36.972C116.976 37.076 116.954 37.174 116.91 37.266C116.87 37.354 116.814 37.432 116.742 37.5C116.674 37.568 116.594 37.622 116.502 37.662C116.41 37.702 116.312 37.722 116.208 37.722C116.104 37.722 116.006 37.702 115.914 37.662C115.826 37.622 115.748 37.568 115.68 37.5C115.612 37.432 115.558 37.354 115.518 37.266C115.478 37.174 115.458 37.076 115.458 36.972C115.458 36.868 115.478 36.77 115.518 36.678C115.558 36.582 115.612 36.5 115.68 36.432C115.748 36.36 115.826 36.304 115.914 36.264C116.006 36.224 116.104 36.204 116.208 36.204C116.312 36.204 116.41 36.224 116.502 36.264C116.594 36.304 116.674 36.36 116.742 36.432C116.814 36.5 116.87 36.582 116.91 36.678C116.954 36.77 116.976 36.868 116.976 36.972ZM124.155 38.922L121.677 45H120.717L118.239 38.922H119.109C119.197 38.922 119.269 38.944 119.325 38.988C119.381 39.032 119.419 39.084 119.439 39.144L120.981 43.056C121.029 43.204 121.071 43.348 121.107 43.488C121.143 43.628 121.177 43.768 121.209 43.908C121.241 43.768 121.275 43.628 121.311 43.488C121.347 43.348 121.391 43.204 121.443 43.056L123.003 39.144C123.027 39.08 123.067 39.028 123.123 38.988C123.179 38.944 123.245 38.922 123.321 38.922H124.155ZM129.518 41.298C129.518 41.05 129.482 40.824 129.41 40.62C129.342 40.412 129.24 40.234 129.104 40.086C128.972 39.934 128.81 39.818 128.618 39.738C128.426 39.654 128.208 39.612 127.964 39.612C127.452 39.612 127.046 39.762 126.746 40.062C126.45 40.358 126.266 40.77 126.194 41.298H129.518ZM130.382 44.148C130.25 44.308 130.092 44.448 129.908 44.568C129.724 44.684 129.526 44.78 129.314 44.856C129.106 44.932 128.89 44.988 128.666 45.024C128.442 45.064 128.22 45.084 128 45.084C127.58 45.084 127.192 45.014 126.836 44.874C126.484 44.73 126.178 44.522 125.918 44.25C125.662 43.974 125.462 43.634 125.318 43.23C125.174 42.826 125.102 42.362 125.102 41.838C125.102 41.414 125.166 41.018 125.294 40.65C125.426 40.282 125.614 39.964 125.858 39.696C126.102 39.424 126.4 39.212 126.752 39.06C127.104 38.904 127.5 38.826 127.94 38.826C128.304 38.826 128.64 38.888 128.948 39.012C129.26 39.132 129.528 39.308 129.752 39.54C129.98 39.768 130.158 40.052 130.286 40.392C130.414 40.728 130.478 41.112 130.478 41.544C130.478 41.712 130.46 41.824 130.424 41.88C130.388 41.936 130.32 41.964 130.22 41.964H126.158C126.17 42.348 126.222 42.682 126.314 42.966C126.41 43.25 126.542 43.488 126.71 43.68C126.878 43.868 127.078 44.01 127.31 44.106C127.542 44.198 127.802 44.244 128.09 44.244C128.358 44.244 128.588 44.214 128.78 44.154C128.976 44.09 129.144 44.022 129.284 43.95C129.424 43.878 129.54 43.812 129.632 43.752C129.728 43.688 129.81 43.656 129.878 43.656C129.966 43.656 130.034 43.69 130.082 43.758L130.382 44.148ZM140.47 37.746C140.434 37.806 140.394 37.852 140.35 37.884C140.31 37.912 140.26 37.926 140.2 37.926C140.132 37.926 140.052 37.892 139.96 37.824C139.868 37.756 139.752 37.682 139.612 37.602C139.476 37.518 139.31 37.442 139.114 37.374C138.922 37.306 138.688 37.272 138.412 37.272C138.152 37.272 137.922 37.308 137.722 37.38C137.526 37.448 137.36 37.542 137.224 37.662C137.092 37.782 136.992 37.924 136.924 38.088C136.856 38.248 136.822 38.422 136.822 38.61C136.822 38.85 136.88 39.05 136.996 39.21C137.116 39.366 137.272 39.5 137.464 39.612C137.66 39.724 137.88 39.822 138.124 39.906C138.372 39.986 138.624 40.07 138.88 40.158C139.14 40.246 139.392 40.346 139.636 40.458C139.884 40.566 140.104 40.704 140.296 40.872C140.492 41.04 140.648 41.246 140.764 41.49C140.884 41.734 140.944 42.034 140.944 42.39C140.944 42.766 140.88 43.12 140.752 43.452C140.624 43.78 140.436 44.066 140.188 44.31C139.944 44.554 139.642 44.746 139.282 44.886C138.926 45.026 138.52 45.096 138.064 45.096C137.504 45.096 136.996 44.996 136.54 44.796C136.084 44.592 135.694 44.318 135.37 43.974L135.706 43.422C135.738 43.378 135.776 43.342 135.82 43.314C135.868 43.282 135.92 43.266 135.976 43.266C136.028 43.266 136.086 43.288 136.15 43.332C136.218 43.372 136.294 43.424 136.378 43.488C136.462 43.552 136.558 43.622 136.666 43.698C136.774 43.774 136.896 43.844 137.032 43.908C137.172 43.972 137.33 44.026 137.506 44.07C137.682 44.11 137.88 44.13 138.1 44.13C138.376 44.13 138.622 44.092 138.838 44.016C139.054 43.94 139.236 43.834 139.384 43.698C139.536 43.558 139.652 43.392 139.732 43.2C139.812 43.008 139.852 42.794 139.852 42.558C139.852 42.298 139.792 42.086 139.672 41.922C139.556 41.754 139.402 41.614 139.21 41.502C139.018 41.39 138.798 41.296 138.55 41.22C138.302 41.14 138.05 41.06 137.794 40.98C137.538 40.896 137.286 40.8 137.038 40.692C136.79 40.584 136.57 40.444 136.378 40.272C136.186 40.1 136.03 39.886 135.91 39.63C135.794 39.37 135.736 39.05 135.736 38.67C135.736 38.366 135.794 38.072 135.91 37.788C136.03 37.504 136.202 37.252 136.426 37.032C136.654 36.812 136.932 36.636 137.26 36.504C137.592 36.372 137.972 36.306 138.4 36.306C138.88 36.306 139.316 36.382 139.708 36.534C140.104 36.686 140.452 36.906 140.752 37.194L140.47 37.746ZM145.343 38.826C145.787 38.826 146.187 38.9 146.543 39.048C146.899 39.196 147.203 39.406 147.455 39.678C147.707 39.95 147.899 40.28 148.031 40.668C148.167 41.052 148.235 41.482 148.235 41.958C148.235 42.438 148.167 42.87 148.031 43.254C147.899 43.638 147.707 43.966 147.455 44.238C147.203 44.51 146.899 44.72 146.543 44.868C146.187 45.012 145.787 45.084 145.343 45.084C144.895 45.084 144.491 45.012 144.131 44.868C143.775 44.72 143.471 44.51 143.219 44.238C142.967 43.966 142.773 43.638 142.637 43.254C142.505 42.87 142.439 42.438 142.439 41.958C142.439 41.482 142.505 41.052 142.637 40.668C142.773 40.28 142.967 39.95 143.219 39.678C143.471 39.406 143.775 39.196 144.131 39.048C144.491 38.9 144.895 38.826 145.343 38.826ZM145.343 44.25C145.943 44.25 146.391 44.05 146.687 43.65C146.983 43.246 147.131 42.684 147.131 41.964C147.131 41.24 146.983 40.676 146.687 40.272C146.391 39.868 145.943 39.666 145.343 39.666C145.039 39.666 144.773 39.718 144.545 39.822C144.321 39.926 144.133 40.076 143.981 40.272C143.833 40.468 143.721 40.71 143.645 40.998C143.573 41.282 143.537 41.604 143.537 41.964C143.537 42.684 143.685 43.246 143.981 43.65C144.281 44.05 144.735 44.25 145.343 44.25ZM151.173 36.162V45H150.105V36.162H151.173ZM158.383 38.922V45H157.747C157.595 45 157.499 44.926 157.459 44.778L157.375 44.124C157.111 44.416 156.815 44.652 156.487 44.832C156.159 45.008 155.783 45.096 155.359 45.096C155.027 45.096 154.733 45.042 154.477 44.934C154.225 44.822 154.013 44.666 153.841 44.466C153.669 44.266 153.539 44.024 153.451 43.74C153.367 43.456 153.325 43.142 153.325 42.798V38.922H154.393V42.798C154.393 43.258 154.497 43.614 154.705 43.866C154.917 44.118 155.239 44.244 155.671 44.244C155.987 44.244 156.281 44.17 156.553 44.022C156.829 43.87 157.083 43.662 157.315 43.398V38.922H158.383ZM166.197 45H165.129V39.816H161.997V43.464C161.997 43.72 162.059 43.91 162.183 44.034C162.307 44.158 162.467 44.22 162.663 44.22C162.775 44.22 162.871 44.206 162.951 44.178C163.035 44.146 163.107 44.112 163.167 44.076C163.227 44.04 163.277 44.008 163.317 43.98C163.361 43.948 163.399 43.932 163.431 43.932C163.487 43.932 163.537 43.966 163.581 44.034L163.893 44.544C163.709 44.716 163.487 44.852 163.227 44.952C162.967 45.048 162.699 45.096 162.423 45.096C161.943 45.096 161.573 44.962 161.313 44.694C161.057 44.426 160.929 44.04 160.929 43.536V39.816H160.197C160.133 39.816 160.079 39.798 160.035 39.762C159.991 39.722 159.969 39.662 159.969 39.582V39.156L160.965 39.024L161.211 37.152C161.223 37.092 161.249 37.044 161.289 37.008C161.333 36.968 161.389 36.948 161.457 36.948H161.997V39.042H166.197V45ZM166.461 36.972C166.461 37.076 166.439 37.174 166.395 37.266C166.355 37.354 166.299 37.432 166.227 37.5C166.159 37.568 166.079 37.622 165.987 37.662C165.895 37.702 165.797 37.722 165.693 37.722C165.589 37.722 165.491 37.702 165.399 37.662C165.311 37.622 165.233 37.568 165.165 37.5C165.097 37.432 165.043 37.354 165.003 37.266C164.963 37.174 164.943 37.076 164.943 36.972C164.943 36.868 164.963 36.77 165.003 36.678C165.043 36.582 165.097 36.5 165.165 36.432C165.233 36.36 165.311 36.304 165.399 36.264C165.491 36.224 165.589 36.204 165.693 36.204C165.797 36.204 165.895 36.224 165.987 36.264C166.079 36.304 166.159 36.36 166.227 36.432C166.299 36.5 166.355 36.582 166.395 36.678C166.439 36.77 166.461 36.868 166.461 36.972ZM170.993 38.826C171.437 38.826 171.837 38.9 172.193 39.048C172.549 39.196 172.853 39.406 173.105 39.678C173.357 39.95 173.549 40.28 173.681 40.668C173.817 41.052 173.885 41.482 173.885 41.958C173.885 42.438 173.817 42.87 173.681 43.254C173.549 43.638 173.357 43.966 173.105 44.238C172.853 44.51 172.549 44.72 172.193 44.868C171.837 45.012 171.437 45.084 170.993 45.084C170.545 45.084 170.141 45.012 169.781 44.868C169.425 44.72 169.121 44.51 168.869 44.238C168.617 43.966 168.423 43.638 168.287 43.254C168.155 42.87 168.089 42.438 168.089 41.958C168.089 41.482 168.155 41.052 168.287 40.668C168.423 40.28 168.617 39.95 168.869 39.678C169.121 39.406 169.425 39.196 169.781 39.048C170.141 38.9 170.545 38.826 170.993 38.826ZM170.993 44.25C171.593 44.25 172.041 44.05 172.337 43.65C172.633 43.246 172.781 42.684 172.781 41.964C172.781 41.24 172.633 40.676 172.337 40.272C172.041 39.868 171.593 39.666 170.993 39.666C170.689 39.666 170.423 39.718 170.195 39.822C169.971 39.926 169.783 40.076 169.631 40.272C169.483 40.468 169.371 40.71 169.295 40.998C169.223 41.282 169.187 41.604 169.187 41.964C169.187 42.684 169.335 43.246 169.631 43.65C169.931 44.05 170.385 44.25 170.993 44.25ZM176.728 39.804C176.86 39.656 177 39.522 177.148 39.402C177.296 39.282 177.452 39.18 177.616 39.096C177.784 39.008 177.96 38.942 178.144 38.898C178.332 38.85 178.534 38.826 178.75 38.826C179.082 38.826 179.374 38.882 179.626 38.994C179.882 39.102 180.094 39.258 180.262 39.462C180.434 39.662 180.564 39.904 180.652 40.188C180.74 40.472 180.784 40.786 180.784 41.13V45H179.71V41.13C179.71 40.67 179.604 40.314 179.392 40.062C179.184 39.806 178.866 39.678 178.438 39.678C178.122 39.678 177.826 39.754 177.55 39.906C177.278 40.058 177.026 40.264 176.794 40.524V45H175.72V38.922H176.362C176.514 38.922 176.608 38.996 176.644 39.144L176.728 39.804ZM186.431 39.924C186.383 40.012 186.309 40.056 186.209 40.056C186.149 40.056 186.081 40.034 186.005 39.99C185.929 39.946 185.835 39.898 185.723 39.846C185.615 39.79 185.485 39.74 185.333 39.696C185.181 39.648 185.001 39.624 184.793 39.624C184.613 39.624 184.451 39.648 184.307 39.696C184.163 39.74 184.039 39.802 183.935 39.882C183.835 39.962 183.757 40.056 183.701 40.164C183.649 40.268 183.623 40.382 183.623 40.506C183.623 40.662 183.667 40.792 183.755 40.896C183.847 41 183.967 41.09 184.115 41.166C184.263 41.242 184.431 41.31 184.619 41.37C184.807 41.426 184.999 41.488 185.195 41.556C185.395 41.62 185.589 41.692 185.777 41.772C185.965 41.852 186.133 41.952 186.281 42.072C186.429 42.192 186.547 42.34 186.635 42.516C186.727 42.688 186.773 42.896 186.773 43.14C186.773 43.42 186.723 43.68 186.623 43.92C186.523 44.156 186.375 44.362 186.179 44.538C185.983 44.71 185.743 44.846 185.459 44.946C185.175 45.046 184.847 45.096 184.475 45.096C184.051 45.096 183.667 45.028 183.323 44.892C182.979 44.752 182.687 44.574 182.447 44.358L182.699 43.95C182.731 43.898 182.769 43.858 182.813 43.83C182.857 43.802 182.913 43.788 182.981 43.788C183.053 43.788 183.129 43.816 183.209 43.872C183.289 43.928 183.385 43.99 183.497 44.058C183.613 44.126 183.753 44.188 183.917 44.244C184.081 44.3 184.285 44.328 184.529 44.328C184.737 44.328 184.919 44.302 185.075 44.25C185.231 44.194 185.361 44.12 185.465 44.028C185.569 43.936 185.645 43.83 185.693 43.71C185.745 43.59 185.771 43.462 185.771 43.326C185.771 43.158 185.725 43.02 185.633 42.912C185.545 42.8 185.427 42.706 185.279 42.63C185.131 42.55 184.961 42.482 184.769 42.426C184.581 42.366 184.387 42.304 184.187 42.24C183.991 42.176 183.797 42.104 183.605 42.024C183.417 41.94 183.249 41.836 183.101 41.712C182.953 41.588 182.833 41.436 182.741 41.256C182.653 41.072 182.609 40.85 182.609 40.59C182.609 40.358 182.657 40.136 182.753 39.924C182.849 39.708 182.989 39.52 183.173 39.36C183.357 39.196 183.583 39.066 183.851 38.97C184.119 38.874 184.425 38.826 184.769 38.826C185.169 38.826 185.527 38.89 185.843 39.018C186.163 39.142 186.439 39.314 186.671 39.534L186.431 39.924Z" fill="#6D7993"/>
<defs>
<clipPath id="clip0_35_94">
<rect width="39.8787" height="44" fill="white" transform="translate(0 2)"/>
</clipPath>
</defs>
</svg>
