<svg width="54" height="54" viewBox="0 0 54 54" fill="none" xmlns="http://www.w3.org/2000/svg">
<path d="M35.0548 26.9998C35.0548 31.4548 31.4548 35.0548 26.9998 35.0548C22.5448 35.0548 18.9448 31.4548 18.9448 26.9998C18.9448 22.5448 22.5448 18.9448 26.9998 18.9448C31.4548 18.9448 35.0548 22.5448 35.0548 26.9998Z" stroke="#1B6E17" stroke-width="3.375" stroke-linecap="round" stroke-linejoin="round"/>
<path d="M26.9996 45.608C34.9421 45.608 42.3446 40.928 47.4971 32.828C49.5221 29.6555 49.5221 24.323 47.4971 21.1505C42.3446 13.0505 34.9421 8.37048 26.9996 8.37048C19.0571 8.37048 11.6546 13.0505 6.50215 21.1505C4.47715 24.323 4.47715 29.6555 6.50215 32.828C11.6546 40.928 19.0571 45.608 26.9996 45.608Z" stroke="#1B6E17" stroke-width="3.375" stroke-linecap="round" stroke-linejoin="round"/>
</svg>
