<svg width="72" height="72" viewBox="0 0 72 72" fill="none" xmlns="http://www.w3.org/2000/svg">
<rect width="72" height="72" rx="36" fill="#85A8F6"/>
<path d="M44.3333 21.8333H27.6667C22.6667 21.8333 19.3333 24.3333 19.3333 30.1666V41.8333C19.3333 47.6666 22.6667 50.1666 27.6667 50.1666H44.3333C49.3333 50.1666 52.6667 47.6666 52.6667 41.8333V30.1666C52.6667 24.3333 49.3333 21.8333 44.3333 21.8333ZM45.1167 31.9833L39.9 36.1499C38.8 37.0333 37.4 37.4666 36 37.4666C34.6 37.4666 33.1833 37.0333 32.1 36.1499L26.8833 31.9833C26.35 31.5499 26.2667 30.7499 26.6833 30.2166C27.1167 29.6833 27.9 29.5833 28.4333 30.0166L33.65 34.1833C34.9167 35.1999 37.0667 35.1999 38.3333 34.1833L43.55 30.0166C44.0833 29.5833 44.8833 29.6666 45.3 30.2166C45.7333 30.7499 45.65 31.5499 45.1167 31.9833Z" fill="white"/>
</svg>
