<svg width="72" height="72" viewBox="0 0 72 72" fill="none" xmlns="http://www.w3.org/2000/svg">
<rect width="72" height="72" rx="36" fill="#85A8F6"/>
<path d="M34.4166 40.9166L31.3333 43.9999C30.6833 44.6499 29.65 44.6499 28.9833 44.0166C28.8 43.8333 28.6166 43.6666 28.4333 43.4833C26.7166 41.7499 25.1666 39.9333 23.7833 38.0333C22.4166 36.1333 21.3166 34.2333 20.5166 32.3499C19.7333 30.4499 19.3333 28.6333 19.3333 26.8999C19.3333 25.7666 19.5333 24.6833 19.9333 23.6833C20.3333 22.6666 20.9666 21.7333 21.85 20.8999C22.9166 19.8499 24.0833 19.3333 25.3166 19.3333C25.7833 19.3333 26.25 19.4333 26.6666 19.6333C27.1 19.8333 27.4833 20.1333 27.7833 20.5666L31.65 26.0166C31.95 26.4333 32.1666 26.8166 32.3166 27.1833C32.4666 27.5333 32.55 27.8833 32.55 28.1999C32.55 28.5999 32.4333 28.9999 32.2 29.3833C31.9833 29.7666 31.6666 30.1666 31.2666 30.5666L30 31.8833C29.8166 32.0666 29.7333 32.2833 29.7333 32.5499C29.7333 32.6833 29.75 32.7999 29.7833 32.9333C29.8333 33.0666 29.8833 33.1666 29.9166 33.2666C30.2166 33.8166 30.7333 34.5333 31.4666 35.3999C32.2166 36.2666 33.0166 37.1499 33.8833 38.0333C34.05 38.1999 34.2333 38.3666 34.4 38.5333C35.0666 39.1833 35.0833 40.2499 34.4166 40.9166Z" fill="white"/>
<path d="M52.6168 46.5501C52.6168 47.0168 52.5335 47.5001 52.3668 47.9668C52.3168 48.1001 52.2668 48.2335 52.2002 48.3668C51.9168 48.9668 51.5502 49.5335 51.0669 50.0668C50.2502 50.9668 49.3502 51.6168 48.3335 52.0335C48.3168 52.0335 48.3002 52.0501 48.2835 52.0501C47.3002 52.4501 46.2335 52.6668 45.0835 52.6668C43.3835 52.6668 41.5668 52.2668 39.6502 51.4501C37.7335 50.6335 35.8168 49.5335 33.9168 48.1501C33.2668 47.6668 32.6168 47.1835 32.0002 46.6668L37.4502 41.2168C37.9168 41.5668 38.3335 41.8335 38.6835 42.0168C38.7668 42.0501 38.8668 42.1001 38.9835 42.1501C39.1168 42.2001 39.2502 42.2168 39.4002 42.2168C39.6835 42.2168 39.9002 42.1168 40.0835 41.9335L41.3502 40.6835C41.7668 40.2668 42.1668 39.9501 42.5502 39.7501C42.9335 39.5168 43.3168 39.4001 43.7335 39.4001C44.0502 39.4001 44.3835 39.4668 44.7502 39.6168C45.1168 39.7668 45.5002 39.9835 45.9169 40.2668L51.4335 44.1835C51.8668 44.4835 52.1668 44.8335 52.3502 45.2501C52.5168 45.6668 52.6168 46.0835 52.6168 46.5501Z" fill="white"/>
</svg>
