<svg width="55" height="54" viewBox="0 0 55 54" fill="none" xmlns="http://www.w3.org/2000/svg">
<path d="M38.4932 13.8823C42.9932 17.0098 46.0982 21.9823 46.7282 27.7198" stroke="#6B590E" stroke-width="3.375" stroke-linecap="round" stroke-linejoin="round"/>
<path d="M8.18628 27.833C8.77128 22.118 11.8313 17.1455 16.2863 13.9955" stroke="#6B590E" stroke-width="3.375" stroke-linecap="round" stroke-linejoin="round"/>
<path d="M18.7617 47.1149C21.3717 48.4424 24.3417 49.1849 27.4692 49.1849C30.4842 49.1849 33.3192 48.5099 35.8617 47.2724" stroke="#6B590E" stroke-width="3.375" stroke-linecap="round" stroke-linejoin="round"/>
<path d="M27.4689 17.3253C30.9234 17.3253 33.7239 14.5248 33.7239 11.0703C33.7239 7.61577 30.9234 4.81531 27.4689 4.81531C24.0143 4.81531 21.2139 7.61577 21.2139 11.0703C21.2139 14.5248 24.0143 17.3253 27.4689 17.3253Z" stroke="#6B590E" stroke-width="3.375" stroke-linecap="round" stroke-linejoin="round"/>
<path d="M11.2003 44.8197C14.6549 44.8197 17.4553 42.0192 17.4553 38.5647C17.4553 35.1102 14.6549 32.3097 11.2003 32.3097C7.74577 32.3097 4.94531 35.1102 4.94531 38.5647C4.94531 42.0192 7.74577 44.8197 11.2003 44.8197Z" stroke="#6B590E" stroke-width="3.375" stroke-linecap="round" stroke-linejoin="round"/>
<path d="M43.465 44.8197C46.9195 44.8197 49.72 42.0192 49.72 38.5647C49.72 35.1102 46.9195 32.3097 43.465 32.3097C40.0104 32.3097 37.21 35.1102 37.21 38.5647C37.21 42.0192 40.0104 44.8197 43.465 44.8197Z" stroke="#6B590E" stroke-width="3.375" stroke-linecap="round" stroke-linejoin="round"/>
</svg>
